<?xml version="1.0" encoding="UTF-8"?>
<svg id="Layer_1" xmlns="http://www.w3.org/2000/svg" version="1.1" viewBox="0 0 1024 482.71">
  <!-- Generator: Adobe Illustrator 29.8.2, SVG Export Plug-In . SVG Version: 2.1.1 Build 3)  -->
  <defs>
    <style>
      .st0 {
        fill: #808184;
      }

      .st1 {
        fill: #026cb6;
      }
    </style>
  </defs>
  <path class="st1" d="M204.3,359.71c-7.95-30.96-13.54-69.8-14.1-118.36.56-48.54,6.15-87.39,14.09-118.34,8.55-33.31,19.81-57.51,30.41-74.95,8.04-13.21,15.7-22.57,21.51-29-10.14,7.42-35.06,21.51-58.02,61.34-18.54,32.17-42.46,92.38-43.27,157.57-12.68-8.84-27.87-13.29-45.61-13.29-24.4,0-44.83,8.6-61.29,25.77-16.49,17.22-24.71,38.21-24.71,63.02,0,26.69,9.2,48.15,27.58,64.42,17.36,15.41,39.3,23.13,65.84,23.13,22.31,0,39.27-11.93,42.62-15.83,5.43-8.82,7.64-19.21,13.3-27.84-10.24,5.03-24.48,19.17-48.7,19.17-18.18,0-33.44-6.97-45.75-20.95-11.92-13.33-17.88-29.08-17.88-47.22,0-15.01,4.69-28.36,14.1-40.04,10.23-13.14,23.39-19.7,39.48-19.7,11.91,0,23.08,3.77,33.52,11.29,3.37,2.4,6.25,4.95,8.7,7.67,5.18,56.18,25.72,106.37,42.08,134.74,22.96,39.82,47.87,53.91,58.01,61.33-5.81-6.43-13.47-15.79-21.51-29.01-10.6-17.42-21.86-41.62-30.4-74.94Z"/>
  <g>
    <path class="st0" d="M238.85,241.09h14.63v50.37h.33c2.33-4.16,6-7.98,10.48-10.48,4.33-2.49,9.48-3.99,14.97-3.99,10.79,0,28.09,6.66,28.09,34.26v47.88h-14.63v-46.22c0-12.97-4.82-23.78-18.63-23.78-9.48,0-16.79,6.65-19.61,14.46-.83,2.17-1,4.33-1,6.98v48.55h-14.63v-118.04Z"/>
    <path class="st0" d="M387.67,339.85c0,6.98.33,13.79,1.16,19.28h-13.13l-1.16-10.14h-.5c-4.5,6.32-13.14,11.97-24.61,11.97-16.29,0-24.61-11.47-24.61-23.1,0-19.45,17.29-30.1,48.38-29.93v-1.66c0-6.49-1.83-18.63-18.28-18.46-7.65,0-15.47,2.17-21.11,6l-3.33-9.81c6.65-4.16,16.45-6.99,26.59-6.99,24.62,0,30.6,16.8,30.6,32.76v30.1ZM373.53,318.07c-15.96-.33-34.09,2.49-34.09,18.12,0,9.64,6.32,13.96,13.65,13.96,10.64,0,17.45-6.65,19.79-13.46.48-1.67.65-3.34.65-4.66v-13.96Z"/>
    <path class="st0" d="M411.28,300.45c0-8.48-.17-15.13-.68-21.79h12.97l.84,13.3h.33c4-7.48,13.31-14.97,26.61-14.97,11.14,0,28.43,6.66,28.43,34.26v47.88h-14.64v-46.38c0-12.97-4.82-23.78-18.62-23.78-9.48,0-16.96,6.82-19.62,14.96-.66,1.83-1,4.32-1,6.83v48.38h-14.63v-58.69Z"/>
    <path class="st0" d="M560.09,339.85c0,6.98.32,13.79,1.15,19.28h-13.12l-1.17-10.14h-.49c-4.5,6.32-13.13,11.97-24.61,11.97-16.3,0-24.61-11.47-24.61-23.1,0-19.45,17.29-30.1,48.38-29.93v-1.66c0-6.49-1.83-18.63-18.28-18.46-7.65,0-15.48,2.17-21.13,6l-3.31-9.81c6.65-4.16,16.46-6.99,26.61-6.99,24.6,0,30.59,16.8,30.59,32.76v30.1ZM545.95,318.07c-15.97-.33-34.09,2.49-34.09,18.12,0,9.64,6.33,13.96,13.65,13.96,10.64,0,17.46-6.65,19.78-13.46.5-1.67.66-3.34.66-4.66v-13.96Z"/>
    <path class="st0" d="M583.7,241.09h14.47v50.54h.33c5.15-8.98,14.46-14.64,27.42-14.64,20.13,0,34.09,16.63,34.09,40.9,0,28.77-18.3,43.06-36.25,43.06-11.63,0-20.94-4.48-27.1-14.96h-.33l-.83,13.13h-12.46c.33-5.49.66-13.63.66-20.78v-97.26ZM598.17,326.88c0,1.83.16,3.66.66,5.32,2.66,10.14,11.3,17.13,21.94,17.13,15.47,0,24.45-12.47,24.45-30.92,0-16.12-8.32-29.93-24.12-29.93-9.81,0-19.11,6.98-22.11,17.96-.5,1.83-.83,3.82-.83,6.15v14.31Z"/>
    <path class="st0" d="M734.82,339.85c0,6.98.33,13.79,1.18,19.28h-13.15l-1.16-10.14h-.5c-4.48,6.32-13.14,11.97-24.6,11.97-16.29,0-24.62-11.47-24.62-23.1,0-19.45,17.31-30.1,48.4-29.93v-1.66c0-6.49-1.83-18.63-18.29-18.46-7.66,0-15.46,2.17-21.12,6l-3.32-9.81c6.66-4.16,16.46-6.99,26.61-6.99,24.6,0,30.59,16.8,30.59,32.76v30.1ZM720.71,318.07c-15.98-.33-34.1,2.49-34.1,18.12,0,9.64,6.33,13.96,13.64,13.96,10.64,0,17.46-6.65,19.78-13.46.5-1.67.67-3.34.67-4.66v-13.96Z"/>
    <path class="st0" d="M827.77,241.09v97.26c0,7.15.33,15.29.67,20.78h-12.98l-.66-13.97h-.5c-4.32,8.98-13.96,15.79-27.1,15.79-19.46,0-34.58-16.45-34.58-40.9-.17-26.77,16.62-43.07,36.07-43.07,12.47,0,20.61,5.83,24.27,12.15h.33v-48.05h14.48ZM813.29,311.42c0-1.83-.16-4.32-.66-6.15-2.16-9.15-10.14-16.79-21.11-16.79-15.12,0-24.1,13.3-24.1,30.93,0,16.3,8.14,29.77,23.77,29.77,9.82,0,18.79-6.65,21.44-17.47.49-2,.66-3.99.66-6.31v-13.97Z"/>
    <path class="st0" d="M860.35,321.57c.34,19.78,12.81,27.93,27.61,27.93,10.47,0,16.96-1.83,22.26-4.17l2.68,10.48c-5.15,2.33-14.15,5.15-26.95,5.15-24.77,0-39.57-16.45-39.57-40.73s14.3-43.24,37.75-43.24c26.43,0,33.25,22.95,33.25,37.75,0,3-.15,5.16-.5,6.82h-56.54ZM903.26,311.09c.16-9.15-3.83-23.61-20.3-23.61-14.95,0-21.28,13.47-22.44,23.61h42.74Z"/>
    <path class="st0" d="M943.67,321.57c.33,19.78,12.8,27.93,27.58,27.93,10.48,0,16.96-1.83,22.29-4.17l2.67,10.48c-5.17,2.33-14.14,5.15-26.94,5.15-24.79,0-39.58-16.45-39.58-40.73s14.31-43.24,37.73-43.24c26.45,0,33.26,22.95,33.26,37.75,0,3-.17,5.16-.49,6.82h-56.53ZM986.55,311.09c.17-9.15-3.82-23.61-20.28-23.61-14.96,0-21.28,13.47-22.44,23.61h42.72Z"/>
  </g>
</svg>